<mxfile host="app.diagrams.net" agent="Mozilla/5.0 (Windows NT 10.0; Win64; x64) AppleWebKit/537.36 (KHTML, like Gecko) Chrome/140.0.0.0 Safari/537.36" version="28.2.5">
  <diagram id="C5RBs43oDa-KdzZeNtuy" name="Page-1">
    <mxGraphModel dx="1869" dy="623" grid="1" gridSize="10" guides="1" tooltips="1" connect="1" arrows="1" fold="1" page="1" pageScale="1" pageWidth="827" pageHeight="1169" math="0" shadow="0">
      <root>
        <mxCell id="WIyWlLk6GJQsqaUBKTNV-0" />
        <mxCell id="WIyWlLk6GJQsqaUBKTNV-1" parent="WIyWlLk6GJQsqaUBKTNV-0" />
        <mxCell id="ecBc6EmpayQU5hUX55Ym-81" value="" style="edgeStyle=orthogonalEdgeStyle;rounded=0;orthogonalLoop=1;jettySize=auto;html=1;fontFamily=Helvetica;fontSize=12;fontColor=default;" parent="WIyWlLk6GJQsqaUBKTNV-1" source="ecBc6EmpayQU5hUX55Ym-76" target="ecBc6EmpayQU5hUX55Ym-80" edge="1">
          <mxGeometry relative="1" as="geometry" />
        </mxCell>
        <mxCell id="ecBc6EmpayQU5hUX55Ym-76" value="Autonomous = ON" style="rounded=1;whiteSpace=wrap;html=1;shadow=0;glass=0;strokeColor=default;strokeWidth=1;align=center;verticalAlign=middle;fontFamily=Helvetica;fontSize=12;fontColor=default;fillColor=default;" parent="WIyWlLk6GJQsqaUBKTNV-1" vertex="1">
          <mxGeometry x="110" y="30" width="120" height="60" as="geometry" />
        </mxCell>
        <mxCell id="ecBc6EmpayQU5hUX55Ym-84" value="" style="edgeStyle=orthogonalEdgeStyle;rounded=0;orthogonalLoop=1;jettySize=auto;html=1;fontFamily=Helvetica;fontSize=12;fontColor=default;" parent="WIyWlLk6GJQsqaUBKTNV-1" source="ecBc6EmpayQU5hUX55Ym-80" target="ecBc6EmpayQU5hUX55Ym-83" edge="1">
          <mxGeometry relative="1" as="geometry" />
        </mxCell>
        <mxCell id="ecBc6EmpayQU5hUX55Ym-80" value="Obstacle" style="whiteSpace=wrap;html=1;rounded=1;shadow=0;glass=0;strokeWidth=1;" parent="WIyWlLk6GJQsqaUBKTNV-1" vertex="1">
          <mxGeometry x="110" y="172.5" width="120" height="60" as="geometry" />
        </mxCell>
        <mxCell id="ecBc6EmpayQU5hUX55Ym-86" value="" style="edgeStyle=orthogonalEdgeStyle;rounded=0;orthogonalLoop=1;jettySize=auto;html=1;fontFamily=Helvetica;fontSize=12;fontColor=default;" parent="WIyWlLk6GJQsqaUBKTNV-1" source="ecBc6EmpayQU5hUX55Ym-83" target="ecBc6EmpayQU5hUX55Ym-85" edge="1">
          <mxGeometry relative="1" as="geometry" />
        </mxCell>
        <mxCell id="ecBc6EmpayQU5hUX55Ym-87" value="Y" style="edgeLabel;html=1;align=center;verticalAlign=middle;resizable=0;points=[];rounded=1;shadow=0;glass=0;strokeColor=default;strokeWidth=1;fontFamily=Helvetica;fontSize=12;fontColor=default;fillColor=default;" parent="ecBc6EmpayQU5hUX55Ym-86" vertex="1" connectable="0">
          <mxGeometry x="-0.051" y="-4" relative="1" as="geometry">
            <mxPoint y="-6" as="offset" />
          </mxGeometry>
        </mxCell>
        <mxCell id="ecBc6EmpayQU5hUX55Ym-89" value="" style="edgeStyle=orthogonalEdgeStyle;rounded=0;orthogonalLoop=1;jettySize=auto;html=1;fontFamily=Helvetica;fontSize=12;fontColor=default;" parent="WIyWlLk6GJQsqaUBKTNV-1" source="ecBc6EmpayQU5hUX55Ym-83" target="ecBc6EmpayQU5hUX55Ym-88" edge="1">
          <mxGeometry relative="1" as="geometry" />
        </mxCell>
        <mxCell id="ecBc6EmpayQU5hUX55Ym-90" value="N" style="edgeLabel;html=1;align=center;verticalAlign=middle;resizable=0;points=[];rounded=1;shadow=0;glass=0;strokeColor=default;strokeWidth=1;fontFamily=Helvetica;fontSize=12;fontColor=default;fillColor=default;" parent="ecBc6EmpayQU5hUX55Ym-89" vertex="1" connectable="0">
          <mxGeometry x="-0.1596" relative="1" as="geometry">
            <mxPoint as="offset" />
          </mxGeometry>
        </mxCell>
        <mxCell id="ecBc6EmpayQU5hUX55Ym-83" value="Break/Manual acceleration" style="rhombus;whiteSpace=wrap;html=1;rounded=1;shadow=0;glass=0;strokeWidth=1;" parent="WIyWlLk6GJQsqaUBKTNV-1" vertex="1">
          <mxGeometry x="330" y="162.5" width="80" height="80" as="geometry" />
        </mxCell>
        <mxCell id="ecBc6EmpayQU5hUX55Ym-85" value="Autonomous = OFF" style="whiteSpace=wrap;html=1;rounded=1;shadow=0;glass=0;strokeWidth=1;" parent="WIyWlLk6GJQsqaUBKTNV-1" vertex="1">
          <mxGeometry x="470" y="172.5" width="120" height="60" as="geometry" />
        </mxCell>
        <mxCell id="ecBc6EmpayQU5hUX55Ym-92" value="" style="edgeStyle=orthogonalEdgeStyle;rounded=0;orthogonalLoop=1;jettySize=auto;html=1;fontFamily=Helvetica;fontSize=12;fontColor=default;" parent="WIyWlLk6GJQsqaUBKTNV-1" source="ecBc6EmpayQU5hUX55Ym-88" target="ecBc6EmpayQU5hUX55Ym-91" edge="1">
          <mxGeometry relative="1" as="geometry" />
        </mxCell>
        <mxCell id="ecBc6EmpayQU5hUX55Ym-93" value="Y" style="edgeLabel;html=1;align=center;verticalAlign=middle;resizable=0;points=[];rounded=1;shadow=0;glass=0;strokeColor=default;strokeWidth=1;fontFamily=Helvetica;fontSize=12;fontColor=default;fillColor=default;" parent="ecBc6EmpayQU5hUX55Ym-92" vertex="1" connectable="0">
          <mxGeometry x="-0.2078" y="-1" relative="1" as="geometry">
            <mxPoint as="offset" />
          </mxGeometry>
        </mxCell>
        <mxCell id="ecBc6EmpayQU5hUX55Ym-95" value="" style="edgeStyle=orthogonalEdgeStyle;rounded=0;orthogonalLoop=1;jettySize=auto;html=1;fontFamily=Helvetica;fontSize=12;fontColor=default;" parent="WIyWlLk6GJQsqaUBKTNV-1" source="ecBc6EmpayQU5hUX55Ym-88" target="ecBc6EmpayQU5hUX55Ym-94" edge="1">
          <mxGeometry relative="1" as="geometry" />
        </mxCell>
        <mxCell id="ecBc6EmpayQU5hUX55Ym-96" value="N" style="edgeLabel;html=1;align=center;verticalAlign=middle;resizable=0;points=[];rounded=1;shadow=0;glass=0;strokeColor=default;strokeWidth=1;fontFamily=Helvetica;fontSize=12;fontColor=default;fillColor=default;" parent="ecBc6EmpayQU5hUX55Ym-95" vertex="1" connectable="0">
          <mxGeometry x="-0.2791" relative="1" as="geometry">
            <mxPoint as="offset" />
          </mxGeometry>
        </mxCell>
        <mxCell id="ecBc6EmpayQU5hUX55Ym-88" value="Object in&lt;div&gt;front?&lt;/div&gt;" style="rhombus;whiteSpace=wrap;html=1;rounded=1;shadow=0;glass=0;strokeWidth=1;" parent="WIyWlLk6GJQsqaUBKTNV-1" vertex="1">
          <mxGeometry x="330" y="290" width="80" height="80" as="geometry" />
        </mxCell>
        <mxCell id="ecBc6EmpayQU5hUX55Ym-126" value="" style="edgeStyle=orthogonalEdgeStyle;rounded=0;orthogonalLoop=1;jettySize=auto;html=1;fontFamily=Helvetica;fontSize=12;fontColor=default;" parent="WIyWlLk6GJQsqaUBKTNV-1" source="ecBc6EmpayQU5hUX55Ym-91" target="ecBc6EmpayQU5hUX55Ym-125" edge="1">
          <mxGeometry relative="1" as="geometry" />
        </mxCell>
        <mxCell id="ecBc6EmpayQU5hUX55Ym-91" value="Receive delta distance from LIDAR" style="whiteSpace=wrap;html=1;rounded=0;shadow=0;glass=0;strokeWidth=1;direction=west;" parent="WIyWlLk6GJQsqaUBKTNV-1" vertex="1">
          <mxGeometry x="470" y="300" width="120" height="60" as="geometry" />
        </mxCell>
        <mxCell id="ecBc6EmpayQU5hUX55Ym-100" value="" style="edgeStyle=orthogonalEdgeStyle;rounded=0;orthogonalLoop=1;jettySize=auto;html=1;fontFamily=Helvetica;fontSize=12;fontColor=default;" parent="WIyWlLk6GJQsqaUBKTNV-1" source="ecBc6EmpayQU5hUX55Ym-94" target="ecBc6EmpayQU5hUX55Ym-99" edge="1">
          <mxGeometry relative="1" as="geometry" />
        </mxCell>
        <mxCell id="ecBc6EmpayQU5hUX55Ym-94" value="Read target velocity (TV) and Actual Velocity (AV)" style="whiteSpace=wrap;html=1;rounded=0;shadow=0;glass=0;strokeWidth=1;" parent="WIyWlLk6GJQsqaUBKTNV-1" vertex="1">
          <mxGeometry x="310" y="430" width="120" height="60" as="geometry" />
        </mxCell>
        <mxCell id="ecBc6EmpayQU5hUX55Ym-102" value="" style="edgeStyle=orthogonalEdgeStyle;rounded=0;orthogonalLoop=1;jettySize=auto;html=1;fontFamily=Helvetica;fontSize=12;fontColor=default;" parent="WIyWlLk6GJQsqaUBKTNV-1" source="ecBc6EmpayQU5hUX55Ym-99" target="ecBc6EmpayQU5hUX55Ym-101" edge="1">
          <mxGeometry relative="1" as="geometry" />
        </mxCell>
        <mxCell id="ecBc6EmpayQU5hUX55Ym-104" value="Y" style="edgeLabel;html=1;align=center;verticalAlign=middle;resizable=0;points=[];rounded=1;shadow=0;glass=0;strokeColor=default;strokeWidth=1;fontFamily=Helvetica;fontSize=12;fontColor=default;fillColor=default;" parent="ecBc6EmpayQU5hUX55Ym-102" vertex="1" connectable="0">
          <mxGeometry x="-0.2912" y="-2" relative="1" as="geometry">
            <mxPoint as="offset" />
          </mxGeometry>
        </mxCell>
        <mxCell id="ecBc6EmpayQU5hUX55Ym-115" value="" style="edgeStyle=orthogonalEdgeStyle;rounded=0;orthogonalLoop=1;jettySize=auto;html=1;fontFamily=Helvetica;fontSize=12;fontColor=default;" parent="WIyWlLk6GJQsqaUBKTNV-1" source="ecBc6EmpayQU5hUX55Ym-99" target="ecBc6EmpayQU5hUX55Ym-114" edge="1">
          <mxGeometry relative="1" as="geometry" />
        </mxCell>
        <mxCell id="ecBc6EmpayQU5hUX55Ym-116" value="N" style="edgeLabel;html=1;align=center;verticalAlign=middle;resizable=0;points=[];rounded=1;shadow=0;glass=0;strokeColor=default;strokeWidth=1;fontFamily=Helvetica;fontSize=12;fontColor=default;fillColor=default;" parent="ecBc6EmpayQU5hUX55Ym-115" vertex="1" connectable="0">
          <mxGeometry x="-0.0988" y="-3" relative="1" as="geometry">
            <mxPoint as="offset" />
          </mxGeometry>
        </mxCell>
        <mxCell id="ecBc6EmpayQU5hUX55Ym-99" value="Is TV = default" style="rhombus;whiteSpace=wrap;html=1;rounded=0;shadow=0;glass=0;strokeWidth=1;" parent="WIyWlLk6GJQsqaUBKTNV-1" vertex="1">
          <mxGeometry x="320" y="560" width="100" height="90" as="geometry" />
        </mxCell>
        <mxCell id="ecBc6EmpayQU5hUX55Ym-130" style="edgeStyle=orthogonalEdgeStyle;rounded=0;orthogonalLoop=1;jettySize=auto;html=1;fontFamily=Helvetica;fontSize=12;fontColor=default;" parent="WIyWlLk6GJQsqaUBKTNV-1" source="ecBc6EmpayQU5hUX55Ym-101" edge="1">
          <mxGeometry relative="1" as="geometry">
            <mxPoint x="110" y="200" as="targetPoint" />
            <Array as="points">
              <mxPoint x="570" y="850" />
              <mxPoint x="-50" y="850" />
              <mxPoint x="-50" y="200" />
            </Array>
          </mxGeometry>
        </mxCell>
        <mxCell id="ecBc6EmpayQU5hUX55Ym-101" value="Mantain Speed" style="whiteSpace=wrap;html=1;rounded=0;shadow=0;glass=0;strokeWidth=1;" parent="WIyWlLk6GJQsqaUBKTNV-1" vertex="1">
          <mxGeometry x="510" y="575" width="120" height="60" as="geometry" />
        </mxCell>
        <mxCell id="ecBc6EmpayQU5hUX55Ym-120" value="" style="edgeStyle=orthogonalEdgeStyle;rounded=0;orthogonalLoop=1;jettySize=auto;html=1;fontFamily=Helvetica;fontSize=12;fontColor=default;" parent="WIyWlLk6GJQsqaUBKTNV-1" source="ecBc6EmpayQU5hUX55Ym-114" target="ecBc6EmpayQU5hUX55Ym-119" edge="1">
          <mxGeometry relative="1" as="geometry" />
        </mxCell>
        <mxCell id="ecBc6EmpayQU5hUX55Ym-123" value="Y" style="edgeLabel;html=1;align=center;verticalAlign=middle;resizable=0;points=[];rounded=1;shadow=0;glass=0;strokeColor=default;strokeWidth=1;fontFamily=Helvetica;fontSize=12;fontColor=default;fillColor=default;" parent="ecBc6EmpayQU5hUX55Ym-120" vertex="1" connectable="0">
          <mxGeometry x="-0.312" relative="1" as="geometry">
            <mxPoint as="offset" />
          </mxGeometry>
        </mxCell>
        <mxCell id="ecBc6EmpayQU5hUX55Ym-122" value="" style="edgeStyle=orthogonalEdgeStyle;rounded=0;orthogonalLoop=1;jettySize=auto;html=1;fontFamily=Helvetica;fontSize=12;fontColor=default;" parent="WIyWlLk6GJQsqaUBKTNV-1" source="ecBc6EmpayQU5hUX55Ym-114" target="ecBc6EmpayQU5hUX55Ym-121" edge="1">
          <mxGeometry relative="1" as="geometry" />
        </mxCell>
        <mxCell id="ecBc6EmpayQU5hUX55Ym-124" value="N" style="edgeLabel;html=1;align=center;verticalAlign=middle;resizable=0;points=[];rounded=1;shadow=0;glass=0;strokeColor=default;strokeWidth=1;fontFamily=Helvetica;fontSize=12;fontColor=default;fillColor=default;" parent="ecBc6EmpayQU5hUX55Ym-122" vertex="1" connectable="0">
          <mxGeometry x="-0.1282" y="3" relative="1" as="geometry">
            <mxPoint as="offset" />
          </mxGeometry>
        </mxCell>
        <mxCell id="ecBc6EmpayQU5hUX55Ym-114" value="Is TV &amp;gt; AV" style="rhombus;whiteSpace=wrap;html=1;rounded=0;shadow=0;glass=0;strokeWidth=1;" parent="WIyWlLk6GJQsqaUBKTNV-1" vertex="1">
          <mxGeometry x="120" y="560" width="100" height="90" as="geometry" />
        </mxCell>
        <mxCell id="ecBc6EmpayQU5hUX55Ym-119" value="Increase Speed" style="whiteSpace=wrap;html=1;rounded=0;shadow=0;glass=0;strokeWidth=1;" parent="WIyWlLk6GJQsqaUBKTNV-1" vertex="1">
          <mxGeometry x="-30" y="670" width="120" height="60" as="geometry" />
        </mxCell>
        <mxCell id="ecBc6EmpayQU5hUX55Ym-121" value="Decrease Speed" style="whiteSpace=wrap;html=1;rounded=0;shadow=0;glass=0;strokeWidth=1;" parent="WIyWlLk6GJQsqaUBKTNV-1" vertex="1">
          <mxGeometry x="110" y="745" width="120" height="60" as="geometry" />
        </mxCell>
        <mxCell id="ecBc6EmpayQU5hUX55Ym-127" style="edgeStyle=orthogonalEdgeStyle;rounded=0;orthogonalLoop=1;jettySize=auto;html=1;entryX=0.5;entryY=0;entryDx=0;entryDy=0;fontFamily=Helvetica;fontSize=12;fontColor=default;" parent="WIyWlLk6GJQsqaUBKTNV-1" source="ecBc6EmpayQU5hUX55Ym-125" target="ecBc6EmpayQU5hUX55Ym-114" edge="1">
          <mxGeometry relative="1" as="geometry" />
        </mxCell>
        <mxCell id="ecBc6EmpayQU5hUX55Ym-125" value="Calculate new TV" style="whiteSpace=wrap;html=1;rounded=0;shadow=0;glass=0;strokeWidth=1;" parent="WIyWlLk6GJQsqaUBKTNV-1" vertex="1">
          <mxGeometry x="470" y="500" width="120" height="60" as="geometry" />
        </mxCell>
        <mxCell id="ecBc6EmpayQU5hUX55Ym-134" value="" style="endArrow=none;html=1;rounded=0;fontFamily=Helvetica;fontSize=12;fontColor=default;exitX=0;exitY=0.5;exitDx=0;exitDy=0;" parent="WIyWlLk6GJQsqaUBKTNV-1" source="ecBc6EmpayQU5hUX55Ym-121" edge="1">
          <mxGeometry width="50" height="50" relative="1" as="geometry">
            <mxPoint x="240" y="570" as="sourcePoint" />
            <mxPoint x="-50" y="775" as="targetPoint" />
          </mxGeometry>
        </mxCell>
        <mxCell id="ecBc6EmpayQU5hUX55Ym-135" value="" style="endArrow=none;html=1;rounded=0;fontFamily=Helvetica;fontSize=12;fontColor=default;exitX=0;exitY=0.5;exitDx=0;exitDy=0;" parent="WIyWlLk6GJQsqaUBKTNV-1" source="ecBc6EmpayQU5hUX55Ym-119" edge="1">
          <mxGeometry width="50" height="50" relative="1" as="geometry">
            <mxPoint x="240" y="570" as="sourcePoint" />
            <mxPoint x="-50" y="700" as="targetPoint" />
          </mxGeometry>
        </mxCell>
      </root>
    </mxGraphModel>
  </diagram>
</mxfile>
